<mxfile host="65bd71144e" pages="2">
    <diagram id="q5gT2WLwOdPF2kQrVBGD" name="MER Base">
        <mxGraphModel dx="2879" dy="1931" grid="1" gridSize="10" guides="1" tooltips="1" connect="1" arrows="1" fold="1" page="1" pageScale="1" pageWidth="827" pageHeight="1169" math="0" shadow="0">
            <root>
                <mxCell id="0"/>
                <mxCell id="1" parent="0"/>
                <mxCell id="u5Yp9tJVJekNTXGclKFT-41" value="" style="rounded=0;whiteSpace=wrap;html=1;fontFamily=Helvetica;fontSize=11;labelBackgroundColor=default;fillColor=none;strokeColor=#b85450;strokeWidth=2;" parent="1" vertex="1">
                    <mxGeometry x="-1314" y="-870" width="580" height="190" as="geometry"/>
                </mxCell>
                <mxCell id="u5Yp9tJVJekNTXGclKFT-44" style="edgeStyle=orthogonalEdgeStyle;shape=connector;rounded=0;orthogonalLoop=1;jettySize=auto;html=1;strokeColor=default;align=center;verticalAlign=middle;fontFamily=Helvetica;fontSize=11;fontColor=default;labelBackgroundColor=default;endArrow=none;endFill=0;" parent="1" source="u5Yp9tJVJekNTXGclKFT-41" target="u5Yp9tJVJekNTXGclKFT-42" edge="1">
                    <mxGeometry relative="1" as="geometry">
                        <Array as="points">
                            <mxPoint x="-1204" y="-655"/>
                            <mxPoint x="-1204" y="-655"/>
                        </Array>
                    </mxGeometry>
                </mxCell>
                <mxCell id="u5Yp9tJVJekNTXGclKFT-46" value="(0,N)" style="edgeLabel;html=1;align=center;verticalAlign=middle;resizable=0;points=[];fontFamily=Helvetica;fontSize=11;fontColor=default;labelBackgroundColor=default;" parent="u5Yp9tJVJekNTXGclKFT-44" connectable="0" vertex="1">
                    <mxGeometry x="-0.6991" y="-1" relative="1" as="geometry">
                        <mxPoint x="21" y="14" as="offset"/>
                    </mxGeometry>
                </mxCell>
                <mxCell id="103" style="edgeStyle=orthogonalEdgeStyle;rounded=0;html=1;startArrow=none;startFill=0;endArrow=none;endFill=0;" parent="1" source="u5Yp9tJVJekNTXGclKFT-1" target="101" edge="1">
                    <mxGeometry relative="1" as="geometry">
                        <Array as="points">
                            <mxPoint x="-720" y="-760"/>
                            <mxPoint x="-720" y="-775"/>
                        </Array>
                    </mxGeometry>
                </mxCell>
                <mxCell id="104" value="(1,1)" style="edgeLabel;html=1;align=center;verticalAlign=middle;resizable=0;points=[];" parent="103" vertex="1" connectable="0">
                    <mxGeometry x="-0.7734" y="1" relative="1" as="geometry">
                        <mxPoint x="1" y="8" as="offset"/>
                    </mxGeometry>
                </mxCell>
                <mxCell id="u5Yp9tJVJekNTXGclKFT-1" value="Usuario" style="rounded=0;whiteSpace=wrap;html=1;" parent="1" vertex="1">
                    <mxGeometry x="-922" y="-783" width="80" height="30" as="geometry"/>
                </mxCell>
                <mxCell id="u5Yp9tJVJekNTXGclKFT-8" value="Asistente Virtual" style="rounded=0;whiteSpace=wrap;html=1;strokeColor=default;align=center;verticalAlign=middle;fontFamily=Helvetica;fontSize=12;fontColor=default;fillColor=default;" parent="1" vertex="1">
                    <mxGeometry x="-632" y="-705" width="80" height="30" as="geometry"/>
                </mxCell>
                <mxCell id="u5Yp9tJVJekNTXGclKFT-10" value="maneja" style="rhombus;whiteSpace=wrap;html=1;" parent="1" vertex="1">
                    <mxGeometry x="-552" y="-808.0000000000001" width="80" height="80" as="geometry"/>
                </mxCell>
                <mxCell id="u5Yp9tJVJekNTXGclKFT-12" value="Idioma" style="rounded=0;whiteSpace=wrap;html=1;" parent="1" vertex="1">
                    <mxGeometry x="-424" y="-783" width="80" height="30" as="geometry"/>
                </mxCell>
                <mxCell id="u5Yp9tJVJekNTXGclKFT-16" value="aprende" style="rhombus;whiteSpace=wrap;html=1;" parent="1" vertex="1">
                    <mxGeometry x="-674" y="-937.5" width="80" height="80" as="geometry"/>
                </mxCell>
                <mxCell id="u5Yp9tJVJekNTXGclKFT-36" value="posee" style="shape=rhombus;double=1;perimeter=rhombusPerimeter;whiteSpace=wrap;html=1;align=center;fontFamily=Helvetica;fontSize=11;fontColor=default;labelBackgroundColor=default;" parent="1" vertex="1">
                    <mxGeometry x="-1114" y="-807.9999999999998" width="80" height="80" as="geometry"/>
                </mxCell>
                <mxCell id="u5Yp9tJVJekNTXGclKFT-37" value="Billetera" style="shape=ext;margin=3;double=1;whiteSpace=wrap;html=1;align=center;fontFamily=Helvetica;fontSize=11;fontColor=default;labelBackgroundColor=default;" parent="1" vertex="1">
                    <mxGeometry x="-1284" y="-782.9999999999998" width="80" height="30" as="geometry"/>
                </mxCell>
                <mxCell id="u5Yp9tJVJekNTXGclKFT-42" value="compra" style="rhombus;whiteSpace=wrap;html=1;" parent="1" vertex="1">
                    <mxGeometry x="-1244" y="-640" width="80" height="80" as="geometry"/>
                </mxCell>
                <mxCell id="u5Yp9tJVJekNTXGclKFT-43" value="Paquete" style="rounded=0;whiteSpace=wrap;html=1;" parent="1" vertex="1">
                    <mxGeometry x="-1244" y="-520" width="80" height="30" as="geometry"/>
                </mxCell>
                <mxCell id="u5Yp9tJVJekNTXGclKFT-48" value="suscribe" style="rhombus;whiteSpace=wrap;html=1;fontFamily=Helvetica;fontSize=11;fontColor=default;labelBackgroundColor=default;" parent="1" vertex="1">
                    <mxGeometry x="-1104" y="-976.9999999999998" width="80" height="80" as="geometry"/>
                </mxCell>
                <mxCell id="u5Yp9tJVJekNTXGclKFT-50" value="Suscripción" style="rounded=0;whiteSpace=wrap;html=1;" parent="1" vertex="1">
                    <mxGeometry x="-1250.5" y="-952" width="80" height="30" as="geometry"/>
                </mxCell>
                <mxCell id="u5Yp9tJVJekNTXGclKFT-61" value="integracion" style="rhombus;whiteSpace=wrap;html=1;fontFamily=Helvetica;fontSize=11;fontColor=default;labelBackgroundColor=default;" parent="1" vertex="1">
                    <mxGeometry x="-922" y="-619.9999999999998" width="80" height="80" as="geometry"/>
                </mxCell>
                <mxCell id="u5Yp9tJVJekNTXGclKFT-65" value="Aplicación" style="rounded=0;whiteSpace=wrap;html=1;" parent="1" vertex="1">
                    <mxGeometry x="-922" y="-500" width="80" height="30" as="geometry"/>
                </mxCell>
                <mxCell id="u5Yp9tJVJekNTXGclKFT-67" value="personifica" style="rhombus;whiteSpace=wrap;html=1;fontFamily=Helvetica;fontSize=11;fontColor=default;labelBackgroundColor=default;" parent="1" vertex="1">
                    <mxGeometry x="-632" y="-609.9999999999998" width="80" height="80" as="geometry"/>
                </mxCell>
                <mxCell id="u5Yp9tJVJekNTXGclKFT-70" value="Avatar" style="rounded=0;whiteSpace=wrap;html=1;glass=0;" parent="1" vertex="1">
                    <mxGeometry x="-632" y="-490" width="80" height="30" as="geometry"/>
                </mxCell>
                <mxCell id="u5Yp9tJVJekNTXGclKFT-73" value="A_Inte" style="rhombus;whiteSpace=wrap;html=1;" parent="1" vertex="1">
                    <mxGeometry x="-674" y="-400" width="80" height="80" as="geometry"/>
                </mxCell>
                <mxCell id="u5Yp9tJVJekNTXGclKFT-74" value="A_Voz" style="rhombus;whiteSpace=wrap;html=1;" parent="1" vertex="1">
                    <mxGeometry x="-424" y="-400" width="80" height="80" as="geometry"/>
                </mxCell>
                <mxCell id="u5Yp9tJVJekNTXGclKFT-76" value="A_Ropa" style="rhombus;whiteSpace=wrap;html=1;" parent="1" vertex="1">
                    <mxGeometry x="-804" y="-400" width="80" height="80" as="geometry"/>
                </mxCell>
                <mxCell id="u5Yp9tJVJekNTXGclKFT-86" value="Ropa" style="rounded=0;whiteSpace=wrap;html=1;" parent="1" vertex="1">
                    <mxGeometry x="-804" y="-280" width="80" height="30" as="geometry"/>
                </mxCell>
                <mxCell id="u5Yp9tJVJekNTXGclKFT-87" value="Interes" style="rounded=0;whiteSpace=wrap;html=1;" parent="1" vertex="1">
                    <mxGeometry x="-674" y="-280" width="80" height="30" as="geometry"/>
                </mxCell>
                <mxCell id="u5Yp9tJVJekNTXGclKFT-89" value="Voz" style="rounded=0;whiteSpace=wrap;html=1;" parent="1" vertex="1">
                    <mxGeometry x="-424" y="-280" width="80" height="30" as="geometry"/>
                </mxCell>
                <mxCell id="u5Yp9tJVJekNTXGclKFT-107" value="fecha confirmacion" style="text;html=1;align=center;verticalAlign=middle;whiteSpace=wrap;rounded=0;fontSize=12;" parent="1" vertex="1">
                    <mxGeometry x="-1014" y="-620" width="72" height="35" as="geometry"/>
                </mxCell>
                <mxCell id="u5Yp9tJVJekNTXGclKFT-108" value="hora confirmacion" style="text;html=1;align=center;verticalAlign=middle;whiteSpace=wrap;rounded=0;fontSize=12;" parent="1" vertex="1">
                    <mxGeometry x="-834" y="-628" width="67" height="30" as="geometry"/>
                </mxCell>
                <mxCell id="3Wksmi16IlxtHeZWQYta-1" value="A_Rasgo" style="rhombus;whiteSpace=wrap;html=1;" parent="1" vertex="1">
                    <mxGeometry x="-552" y="-400" width="80" height="80" as="geometry"/>
                </mxCell>
                <mxCell id="3Wksmi16IlxtHeZWQYta-4" value="Rasgo" style="rounded=0;whiteSpace=wrap;html=1;" parent="1" vertex="1">
                    <mxGeometry x="-552" y="-280" width="80" height="30" as="geometry"/>
                </mxCell>
                <mxCell id="3Wksmi16IlxtHeZWQYta-5" value="A_Apa" style="rhombus;whiteSpace=wrap;html=1;" parent="1" vertex="1">
                    <mxGeometry x="-304" y="-400" width="80" height="80" as="geometry"/>
                </mxCell>
                <mxCell id="3Wksmi16IlxtHeZWQYta-8" value="Apariencia" style="rounded=0;whiteSpace=wrap;html=1;" parent="1" vertex="1">
                    <mxGeometry x="-304" y="-280" width="80" height="30" as="geometry"/>
                </mxCell>
                <mxCell id="u5Yp9tJVJekNTXGclKFT-11" value="" style="endArrow=none;html=1;rounded=0;edgeStyle=orthogonalEdgeStyle;jumpStyle=arc;" parent="1" source="u5Yp9tJVJekNTXGclKFT-8" target="u5Yp9tJVJekNTXGclKFT-10" edge="1">
                    <mxGeometry width="50" height="50" relative="1" as="geometry">
                        <mxPoint x="-504" y="-763.7499999999998" as="sourcePoint"/>
                        <mxPoint x="-667" y="-469" as="targetPoint"/>
                        <Array as="points">
                            <mxPoint x="-592" y="-768"/>
                        </Array>
                    </mxGeometry>
                </mxCell>
                <mxCell id="u5Yp9tJVJekNTXGclKFT-15" value="(0,N)" style="edgeLabel;html=1;align=center;verticalAlign=middle;resizable=0;points=[];fontFamily=Helvetica;fontSize=11;fontColor=default;labelBackgroundColor=default;" parent="u5Yp9tJVJekNTXGclKFT-11" connectable="0" vertex="1">
                    <mxGeometry x="-0.5746" relative="1" as="geometry">
                        <mxPoint x="-22" y="3" as="offset"/>
                    </mxGeometry>
                </mxCell>
                <mxCell id="u5Yp9tJVJekNTXGclKFT-13" style="edgeStyle=orthogonalEdgeStyle;rounded=0;orthogonalLoop=1;jettySize=auto;html=1;endArrow=none;endFill=0;" parent="1" source="u5Yp9tJVJekNTXGclKFT-10" target="u5Yp9tJVJekNTXGclKFT-12" edge="1">
                    <mxGeometry relative="1" as="geometry"/>
                </mxCell>
                <mxCell id="u5Yp9tJVJekNTXGclKFT-14" value="(1,N)" style="edgeLabel;html=1;align=center;verticalAlign=middle;resizable=0;points=[];fontFamily=Helvetica;fontSize=11;fontColor=default;labelBackgroundColor=default;" parent="u5Yp9tJVJekNTXGclKFT-13" connectable="0" vertex="1">
                    <mxGeometry x="0.6681" relative="1" as="geometry">
                        <mxPoint x="-7" y="-15" as="offset"/>
                    </mxGeometry>
                </mxCell>
                <mxCell id="u5Yp9tJVJekNTXGclKFT-17" style="edgeStyle=orthogonalEdgeStyle;shape=connector;rounded=0;orthogonalLoop=1;jettySize=auto;html=1;strokeColor=default;align=center;verticalAlign=middle;fontFamily=Helvetica;fontSize=11;fontColor=default;labelBackgroundColor=default;endArrow=none;endFill=0;exitX=1;exitY=0.25;exitDx=0;exitDy=0;" parent="1" source="u5Yp9tJVJekNTXGclKFT-1" target="u5Yp9tJVJekNTXGclKFT-16" edge="1">
                    <mxGeometry relative="1" as="geometry">
                        <Array as="points">
                            <mxPoint x="-754" y="-775"/>
                            <mxPoint x="-754" y="-898"/>
                        </Array>
                    </mxGeometry>
                </mxCell>
                <mxCell id="u5Yp9tJVJekNTXGclKFT-20" value="(0,N)" style="edgeLabel;html=1;align=center;verticalAlign=middle;resizable=0;points=[];fontFamily=Helvetica;fontSize=11;fontColor=default;labelBackgroundColor=default;" parent="u5Yp9tJVJekNTXGclKFT-17" connectable="0" vertex="1">
                    <mxGeometry x="-0.9727" relative="1" as="geometry">
                        <mxPoint x="24" y="-15" as="offset"/>
                    </mxGeometry>
                </mxCell>
                <mxCell id="u5Yp9tJVJekNTXGclKFT-18" style="edgeStyle=orthogonalEdgeStyle;shape=connector;rounded=0;orthogonalLoop=1;jettySize=auto;html=1;strokeColor=default;align=center;verticalAlign=middle;fontFamily=Helvetica;fontSize=11;fontColor=default;labelBackgroundColor=default;endArrow=none;endFill=0;" parent="1" source="u5Yp9tJVJekNTXGclKFT-16" target="u5Yp9tJVJekNTXGclKFT-12" edge="1">
                    <mxGeometry relative="1" as="geometry"/>
                </mxCell>
                <mxCell id="u5Yp9tJVJekNTXGclKFT-19" value="(0,N)" style="edgeLabel;html=1;align=center;verticalAlign=middle;resizable=0;points=[];fontFamily=Helvetica;fontSize=11;fontColor=default;labelBackgroundColor=default;" parent="u5Yp9tJVJekNTXGclKFT-18" connectable="0" vertex="1">
                    <mxGeometry x="0.9133" y="-1" relative="1" as="geometry">
                        <mxPoint x="-21" y="3" as="offset"/>
                    </mxGeometry>
                </mxCell>
                <mxCell id="u5Yp9tJVJekNTXGclKFT-35" style="edgeStyle=orthogonalEdgeStyle;shape=connector;rounded=0;orthogonalLoop=1;jettySize=auto;html=1;strokeColor=default;align=center;verticalAlign=middle;fontFamily=Helvetica;fontSize=11;fontColor=default;labelBackgroundColor=default;endArrow=none;endFill=0;" parent="1" source="u5Yp9tJVJekNTXGclKFT-1" target="u5Yp9tJVJekNTXGclKFT-36" edge="1">
                    <mxGeometry relative="1" as="geometry">
                        <mxPoint x="-1014" y="-768" as="targetPoint"/>
                    </mxGeometry>
                </mxCell>
                <mxCell id="u5Yp9tJVJekNTXGclKFT-39" value="(1,1)" style="edgeLabel;html=1;align=center;verticalAlign=middle;resizable=0;points=[];fontFamily=Helvetica;fontSize=11;fontColor=default;labelBackgroundColor=default;" parent="u5Yp9tJVJekNTXGclKFT-35" connectable="0" vertex="1">
                    <mxGeometry x="-0.8335" relative="1" as="geometry">
                        <mxPoint x="-9" y="-12" as="offset"/>
                    </mxGeometry>
                </mxCell>
                <mxCell id="u5Yp9tJVJekNTXGclKFT-38" style="edgeStyle=orthogonalEdgeStyle;shape=connector;rounded=0;orthogonalLoop=1;jettySize=auto;html=1;strokeColor=default;align=center;verticalAlign=middle;fontFamily=Helvetica;fontSize=11;fontColor=default;labelBackgroundColor=default;endArrow=none;endFill=0;" parent="1" source="u5Yp9tJVJekNTXGclKFT-36" target="u5Yp9tJVJekNTXGclKFT-37" edge="1">
                    <mxGeometry relative="1" as="geometry"/>
                </mxCell>
                <mxCell id="u5Yp9tJVJekNTXGclKFT-40" value="(1,1)" style="edgeLabel;html=1;align=center;verticalAlign=middle;resizable=0;points=[];fontFamily=Helvetica;fontSize=11;fontColor=default;labelBackgroundColor=default;" parent="u5Yp9tJVJekNTXGclKFT-38" connectable="0" vertex="1">
                    <mxGeometry x="0.703" relative="1" as="geometry">
                        <mxPoint x="6" y="-12" as="offset"/>
                    </mxGeometry>
                </mxCell>
                <mxCell id="u5Yp9tJVJekNTXGclKFT-45" style="edgeStyle=orthogonalEdgeStyle;shape=connector;rounded=0;orthogonalLoop=1;jettySize=auto;html=1;strokeColor=default;align=center;verticalAlign=middle;fontFamily=Helvetica;fontSize=11;fontColor=default;labelBackgroundColor=default;endArrow=none;endFill=0;" parent="1" source="u5Yp9tJVJekNTXGclKFT-42" target="u5Yp9tJVJekNTXGclKFT-43" edge="1">
                    <mxGeometry relative="1" as="geometry"/>
                </mxCell>
                <mxCell id="u5Yp9tJVJekNTXGclKFT-47" value="(0,N)" style="edgeLabel;html=1;align=center;verticalAlign=middle;resizable=0;points=[];fontFamily=Helvetica;fontSize=11;fontColor=default;labelBackgroundColor=default;" parent="u5Yp9tJVJekNTXGclKFT-45" connectable="0" vertex="1">
                    <mxGeometry x="0.2293" y="1" relative="1" as="geometry">
                        <mxPoint x="19" y="3" as="offset"/>
                    </mxGeometry>
                </mxCell>
                <mxCell id="u5Yp9tJVJekNTXGclKFT-49" style="edgeStyle=orthogonalEdgeStyle;shape=connector;rounded=0;orthogonalLoop=1;jettySize=auto;html=1;strokeColor=default;align=center;verticalAlign=middle;fontFamily=Helvetica;fontSize=11;fontColor=default;labelBackgroundColor=default;endArrow=none;endFill=0;" parent="1" source="u5Yp9tJVJekNTXGclKFT-1" target="u5Yp9tJVJekNTXGclKFT-48" edge="1">
                    <mxGeometry relative="1" as="geometry">
                        <Array as="points">
                            <mxPoint x="-882" y="-937"/>
                        </Array>
                    </mxGeometry>
                </mxCell>
                <mxCell id="u5Yp9tJVJekNTXGclKFT-60" value="(0,N)" style="edgeLabel;html=1;align=center;verticalAlign=middle;resizable=0;points=[];fontFamily=Helvetica;fontSize=11;fontColor=default;labelBackgroundColor=default;" parent="u5Yp9tJVJekNTXGclKFT-49" connectable="0" vertex="1">
                    <mxGeometry x="-0.9257" y="2" relative="1" as="geometry">
                        <mxPoint x="20" as="offset"/>
                    </mxGeometry>
                </mxCell>
                <mxCell id="u5Yp9tJVJekNTXGclKFT-51" style="edgeStyle=orthogonalEdgeStyle;shape=connector;rounded=0;orthogonalLoop=1;jettySize=auto;html=1;strokeColor=default;align=center;verticalAlign=middle;fontFamily=Helvetica;fontSize=11;fontColor=default;labelBackgroundColor=default;endArrow=none;endFill=0;" parent="1" source="u5Yp9tJVJekNTXGclKFT-48" target="u5Yp9tJVJekNTXGclKFT-50" edge="1">
                    <mxGeometry relative="1" as="geometry">
                        <mxPoint x="-1124" y="-921.9999999999998" as="sourcePoint"/>
                    </mxGeometry>
                </mxCell>
                <mxCell id="u5Yp9tJVJekNTXGclKFT-59" value="(1,1)" style="edgeLabel;html=1;align=center;verticalAlign=middle;resizable=0;points=[];fontFamily=Helvetica;fontSize=11;fontColor=default;labelBackgroundColor=default;" parent="u5Yp9tJVJekNTXGclKFT-51" connectable="0" vertex="1">
                    <mxGeometry x="0.3393" relative="1" as="geometry">
                        <mxPoint x="2" y="-15" as="offset"/>
                    </mxGeometry>
                </mxCell>
                <mxCell id="u5Yp9tJVJekNTXGclKFT-62" style="edgeStyle=orthogonalEdgeStyle;shape=connector;rounded=0;orthogonalLoop=1;jettySize=auto;html=1;strokeColor=default;align=center;verticalAlign=middle;fontFamily=Helvetica;fontSize=11;fontColor=default;labelBackgroundColor=default;endArrow=none;endFill=0;" parent="1" source="u5Yp9tJVJekNTXGclKFT-1" target="u5Yp9tJVJekNTXGclKFT-61" edge="1">
                    <mxGeometry relative="1" as="geometry"/>
                </mxCell>
                <mxCell id="u5Yp9tJVJekNTXGclKFT-84" value="(0,N)" style="edgeLabel;html=1;align=center;verticalAlign=middle;resizable=0;points=[];fontFamily=Helvetica;fontSize=11;fontColor=default;labelBackgroundColor=default;" parent="u5Yp9tJVJekNTXGclKFT-62" connectable="0" vertex="1">
                    <mxGeometry x="-0.7767" relative="1" as="geometry">
                        <mxPoint x="-22" y="-2" as="offset"/>
                    </mxGeometry>
                </mxCell>
                <mxCell id="u5Yp9tJVJekNTXGclKFT-66" value="" style="edgeStyle=orthogonalEdgeStyle;shape=connector;rounded=0;orthogonalLoop=1;jettySize=auto;html=1;strokeColor=default;align=center;verticalAlign=middle;fontFamily=Helvetica;fontSize=11;fontColor=default;labelBackgroundColor=default;endArrow=none;endFill=0;" parent="1" source="u5Yp9tJVJekNTXGclKFT-61" target="u5Yp9tJVJekNTXGclKFT-65" edge="1">
                    <mxGeometry relative="1" as="geometry"/>
                </mxCell>
                <mxCell id="u5Yp9tJVJekNTXGclKFT-82" value="(0,N)" style="edgeLabel;html=1;align=center;verticalAlign=middle;resizable=0;points=[];fontFamily=Helvetica;fontSize=11;fontColor=default;labelBackgroundColor=default;" parent="u5Yp9tJVJekNTXGclKFT-66" connectable="0" vertex="1">
                    <mxGeometry x="0.4256" y="-2" relative="1" as="geometry">
                        <mxPoint x="-20" as="offset"/>
                    </mxGeometry>
                </mxCell>
                <mxCell id="u5Yp9tJVJekNTXGclKFT-68" style="edgeStyle=orthogonalEdgeStyle;shape=connector;rounded=0;orthogonalLoop=1;jettySize=auto;html=1;strokeColor=default;align=center;verticalAlign=middle;fontFamily=Helvetica;fontSize=11;fontColor=default;labelBackgroundColor=default;endArrow=none;endFill=0;" parent="1" source="u5Yp9tJVJekNTXGclKFT-8" target="u5Yp9tJVJekNTXGclKFT-67" edge="1">
                    <mxGeometry relative="1" as="geometry"/>
                </mxCell>
                <mxCell id="FVOGcY9Ehc3pNcKBaOKf-2" value="(1,1)" style="edgeLabel;html=1;align=center;verticalAlign=middle;resizable=0;points=[];" parent="u5Yp9tJVJekNTXGclKFT-68" vertex="1" connectable="0">
                    <mxGeometry x="-0.811" relative="1" as="geometry">
                        <mxPoint x="-20" y="14" as="offset"/>
                    </mxGeometry>
                </mxCell>
                <mxCell id="u5Yp9tJVJekNTXGclKFT-71" style="edgeStyle=orthogonalEdgeStyle;shape=connector;rounded=0;orthogonalLoop=1;jettySize=auto;html=1;strokeColor=default;align=center;verticalAlign=middle;fontFamily=Helvetica;fontSize=11;fontColor=default;labelBackgroundColor=default;endArrow=none;endFill=0;" parent="1" source="u5Yp9tJVJekNTXGclKFT-67" target="u5Yp9tJVJekNTXGclKFT-70" edge="1">
                    <mxGeometry relative="1" as="geometry"/>
                </mxCell>
                <mxCell id="FVOGcY9Ehc3pNcKBaOKf-3" value="(1,1)" style="edgeLabel;html=1;align=center;verticalAlign=middle;resizable=0;points=[];" parent="u5Yp9tJVJekNTXGclKFT-71" vertex="1" connectable="0">
                    <mxGeometry x="0.3463" relative="1" as="geometry">
                        <mxPoint x="-22" y="-2" as="offset"/>
                    </mxGeometry>
                </mxCell>
                <mxCell id="u5Yp9tJVJekNTXGclKFT-78" style="edgeStyle=orthogonalEdgeStyle;shape=connector;rounded=0;orthogonalLoop=1;jettySize=auto;html=1;entryX=0.25;entryY=1;entryDx=0;entryDy=0;strokeColor=default;align=center;verticalAlign=middle;fontFamily=Helvetica;fontSize=11;fontColor=default;labelBackgroundColor=default;endArrow=none;endFill=0;" parent="1" source="u5Yp9tJVJekNTXGclKFT-73" target="u5Yp9tJVJekNTXGclKFT-70" edge="1">
                    <mxGeometry relative="1" as="geometry"/>
                </mxCell>
                <mxCell id="u5Yp9tJVJekNTXGclKFT-97" value="(0,N)" style="edgeLabel;html=1;align=center;verticalAlign=middle;resizable=0;points=[];fontFamily=Helvetica;fontSize=11;fontColor=default;labelBackgroundColor=default;" parent="u5Yp9tJVJekNTXGclKFT-78" connectable="0" vertex="1">
                    <mxGeometry x="0.8488" relative="1" as="geometry">
                        <mxPoint x="-20" y="4" as="offset"/>
                    </mxGeometry>
                </mxCell>
                <mxCell id="u5Yp9tJVJekNTXGclKFT-80" style="edgeStyle=orthogonalEdgeStyle;shape=connector;rounded=0;orthogonalLoop=1;jettySize=auto;html=1;entryX=1;entryY=0.75;entryDx=0;entryDy=0;strokeColor=default;align=center;verticalAlign=middle;fontFamily=Helvetica;fontSize=11;fontColor=default;labelBackgroundColor=default;endArrow=none;endFill=0;" parent="1" source="u5Yp9tJVJekNTXGclKFT-74" target="u5Yp9tJVJekNTXGclKFT-70" edge="1">
                    <mxGeometry relative="1" as="geometry">
                        <Array as="points">
                            <mxPoint x="-384" y="-467.9999999999998"/>
                            <mxPoint x="-488" y="-467.9999999999998"/>
                        </Array>
                    </mxGeometry>
                </mxCell>
                <mxCell id="u5Yp9tJVJekNTXGclKFT-99" value="(0,N)" style="edgeLabel;html=1;align=center;verticalAlign=middle;resizable=0;points=[];fontFamily=Helvetica;fontSize=11;fontColor=default;labelBackgroundColor=default;" parent="u5Yp9tJVJekNTXGclKFT-80" connectable="0" vertex="1">
                    <mxGeometry x="0.8781" y="2" relative="1" as="geometry">
                        <mxPoint x="14" y="16" as="offset"/>
                    </mxGeometry>
                </mxCell>
                <mxCell id="u5Yp9tJVJekNTXGclKFT-77" style="edgeStyle=orthogonalEdgeStyle;shape=connector;rounded=0;orthogonalLoop=1;jettySize=auto;html=1;strokeColor=default;align=center;verticalAlign=middle;fontFamily=Helvetica;fontSize=11;fontColor=default;labelBackgroundColor=default;endArrow=none;endFill=0;" parent="1" source="u5Yp9tJVJekNTXGclKFT-76" target="u5Yp9tJVJekNTXGclKFT-70" edge="1">
                    <mxGeometry relative="1" as="geometry">
                        <Array as="points">
                            <mxPoint x="-764" y="-474.9999999999998"/>
                        </Array>
                    </mxGeometry>
                </mxCell>
                <mxCell id="u5Yp9tJVJekNTXGclKFT-96" value="(0,N)" style="edgeLabel;html=1;align=center;verticalAlign=middle;resizable=0;points=[];fontFamily=Helvetica;fontSize=11;fontColor=default;labelBackgroundColor=default;" parent="u5Yp9tJVJekNTXGclKFT-77" connectable="0" vertex="1">
                    <mxGeometry x="0.7604" y="1" relative="1" as="geometry">
                        <mxPoint y="-14" as="offset"/>
                    </mxGeometry>
                </mxCell>
                <mxCell id="u5Yp9tJVJekNTXGclKFT-91" style="edgeStyle=orthogonalEdgeStyle;shape=connector;rounded=0;orthogonalLoop=1;jettySize=auto;html=1;strokeColor=default;align=center;verticalAlign=middle;fontFamily=Helvetica;fontSize=11;fontColor=default;labelBackgroundColor=default;endArrow=none;endFill=0;" parent="1" source="u5Yp9tJVJekNTXGclKFT-86" target="u5Yp9tJVJekNTXGclKFT-76" edge="1">
                    <mxGeometry relative="1" as="geometry"/>
                </mxCell>
                <mxCell id="u5Yp9tJVJekNTXGclKFT-101" value="(1,1)" style="edgeLabel;html=1;align=center;verticalAlign=middle;resizable=0;points=[];fontFamily=Helvetica;fontSize=11;fontColor=default;labelBackgroundColor=default;" parent="u5Yp9tJVJekNTXGclKFT-91" connectable="0" vertex="1">
                    <mxGeometry x="-0.352" relative="1" as="geometry">
                        <mxPoint x="20" as="offset"/>
                    </mxGeometry>
                </mxCell>
                <mxCell id="u5Yp9tJVJekNTXGclKFT-92" style="edgeStyle=orthogonalEdgeStyle;shape=connector;rounded=0;orthogonalLoop=1;jettySize=auto;html=1;strokeColor=default;align=center;verticalAlign=middle;fontFamily=Helvetica;fontSize=11;fontColor=default;labelBackgroundColor=default;endArrow=none;endFill=0;" parent="1" source="u5Yp9tJVJekNTXGclKFT-87" target="u5Yp9tJVJekNTXGclKFT-73" edge="1">
                    <mxGeometry relative="1" as="geometry"/>
                </mxCell>
                <mxCell id="u5Yp9tJVJekNTXGclKFT-102" value="(1,N)" style="edgeLabel;html=1;align=center;verticalAlign=middle;resizable=0;points=[];fontFamily=Helvetica;fontSize=11;fontColor=default;labelBackgroundColor=default;" parent="u5Yp9tJVJekNTXGclKFT-92" connectable="0" vertex="1">
                    <mxGeometry x="-0.39" relative="1" as="geometry">
                        <mxPoint x="20" y="2" as="offset"/>
                    </mxGeometry>
                </mxCell>
                <mxCell id="u5Yp9tJVJekNTXGclKFT-94" value="" style="edgeStyle=orthogonalEdgeStyle;shape=connector;rounded=0;orthogonalLoop=1;jettySize=auto;html=1;strokeColor=default;align=center;verticalAlign=middle;fontFamily=Helvetica;fontSize=11;fontColor=default;labelBackgroundColor=default;endArrow=none;endFill=0;" parent="1" source="u5Yp9tJVJekNTXGclKFT-89" target="u5Yp9tJVJekNTXGclKFT-74" edge="1">
                    <mxGeometry relative="1" as="geometry"/>
                </mxCell>
                <mxCell id="u5Yp9tJVJekNTXGclKFT-104" value="(1,1)" style="edgeLabel;html=1;align=center;verticalAlign=middle;resizable=0;points=[];fontFamily=Helvetica;fontSize=11;fontColor=default;labelBackgroundColor=default;" parent="u5Yp9tJVJekNTXGclKFT-94" connectable="0" vertex="1">
                    <mxGeometry x="-0.53" relative="1" as="geometry">
                        <mxPoint x="20" as="offset"/>
                    </mxGeometry>
                </mxCell>
                <mxCell id="u5Yp9tJVJekNTXGclKFT-109" style="shape=connector;rounded=0;orthogonalLoop=1;jettySize=auto;html=1;strokeColor=default;align=center;verticalAlign=middle;fontFamily=Helvetica;fontSize=11;fontColor=default;labelBackgroundColor=default;endArrow=none;endFill=0;" parent="1" source="u5Yp9tJVJekNTXGclKFT-107" target="u5Yp9tJVJekNTXGclKFT-61" edge="1">
                    <mxGeometry relative="1" as="geometry"/>
                </mxCell>
                <mxCell id="u5Yp9tJVJekNTXGclKFT-110" style="shape=connector;rounded=0;orthogonalLoop=1;jettySize=auto;html=1;strokeColor=default;align=center;verticalAlign=middle;fontFamily=Helvetica;fontSize=11;fontColor=default;labelBackgroundColor=default;endArrow=none;endFill=0;" parent="1" source="u5Yp9tJVJekNTXGclKFT-108" target="u5Yp9tJVJekNTXGclKFT-61" edge="1">
                    <mxGeometry relative="1" as="geometry"/>
                </mxCell>
                <mxCell id="u5Yp9tJVJekNTXGclKFT-79" style="edgeStyle=orthogonalEdgeStyle;shape=connector;rounded=0;orthogonalLoop=1;jettySize=auto;html=1;entryX=0.75;entryY=1;entryDx=0;entryDy=0;strokeColor=default;align=center;verticalAlign=middle;fontFamily=Helvetica;fontSize=11;fontColor=default;labelBackgroundColor=default;endArrow=none;endFill=0;" parent="1" source="3Wksmi16IlxtHeZWQYta-1" target="u5Yp9tJVJekNTXGclKFT-70" edge="1">
                    <mxGeometry relative="1" as="geometry">
                        <mxPoint x="-511.97142857142853" y="-399.97142857142853" as="sourcePoint"/>
                    </mxGeometry>
                </mxCell>
                <mxCell id="u5Yp9tJVJekNTXGclKFT-98" value="(0,N)" style="edgeLabel;html=1;align=center;verticalAlign=middle;resizable=0;points=[];fontFamily=Helvetica;fontSize=11;fontColor=default;labelBackgroundColor=default;" parent="u5Yp9tJVJekNTXGclKFT-79" connectable="0" vertex="1">
                    <mxGeometry x="0.79" y="-1" relative="1" as="geometry">
                        <mxPoint x="-21" y="-2" as="offset"/>
                    </mxGeometry>
                </mxCell>
                <mxCell id="3Wksmi16IlxtHeZWQYta-2" value="" style="edgeStyle=orthogonalEdgeStyle;shape=connector;rounded=0;orthogonalLoop=1;jettySize=auto;html=1;strokeColor=default;align=center;verticalAlign=middle;fontFamily=Helvetica;fontSize=11;fontColor=default;labelBackgroundColor=default;endArrow=none;endFill=0;" parent="1" source="3Wksmi16IlxtHeZWQYta-4" target="3Wksmi16IlxtHeZWQYta-1" edge="1">
                    <mxGeometry relative="1" as="geometry"/>
                </mxCell>
                <mxCell id="3Wksmi16IlxtHeZWQYta-3" value="(1,N)" style="edgeLabel;html=1;align=center;verticalAlign=middle;resizable=0;points=[];fontFamily=Helvetica;fontSize=11;fontColor=default;labelBackgroundColor=default;" parent="3Wksmi16IlxtHeZWQYta-2" connectable="0" vertex="1">
                    <mxGeometry x="-0.27" y="1" relative="1" as="geometry">
                        <mxPoint x="18" y="4" as="offset"/>
                    </mxGeometry>
                </mxCell>
                <mxCell id="u5Yp9tJVJekNTXGclKFT-81" style="edgeStyle=orthogonalEdgeStyle;shape=connector;rounded=0;orthogonalLoop=1;jettySize=auto;html=1;entryX=1;entryY=0.25;entryDx=0;entryDy=0;strokeColor=default;align=center;verticalAlign=middle;fontFamily=Helvetica;fontSize=11;fontColor=default;labelBackgroundColor=default;endArrow=none;endFill=0;" parent="1" source="3Wksmi16IlxtHeZWQYta-5" target="u5Yp9tJVJekNTXGclKFT-70" edge="1">
                    <mxGeometry relative="1" as="geometry">
                        <Array as="points">
                            <mxPoint x="-264" y="-482.9999999999998"/>
                            <mxPoint x="-428" y="-482.9999999999998"/>
                        </Array>
                        <mxPoint x="-263.97142857142853" y="-399.97142857142853" as="sourcePoint"/>
                    </mxGeometry>
                </mxCell>
                <mxCell id="u5Yp9tJVJekNTXGclKFT-100" value="(0,N)" style="edgeLabel;html=1;align=center;verticalAlign=middle;resizable=0;points=[];fontFamily=Helvetica;fontSize=11;fontColor=default;labelBackgroundColor=default;" parent="u5Yp9tJVJekNTXGclKFT-81" connectable="0" vertex="1">
                    <mxGeometry x="0.9223" y="-1" relative="1" as="geometry">
                        <mxPoint x="4" y="-16" as="offset"/>
                    </mxGeometry>
                </mxCell>
                <mxCell id="3Wksmi16IlxtHeZWQYta-6" style="edgeStyle=orthogonalEdgeStyle;shape=connector;rounded=0;orthogonalLoop=1;jettySize=auto;html=1;strokeColor=default;align=center;verticalAlign=middle;fontFamily=Helvetica;fontSize=11;fontColor=default;labelBackgroundColor=default;endArrow=none;endFill=0;" parent="1" source="3Wksmi16IlxtHeZWQYta-8" target="3Wksmi16IlxtHeZWQYta-5" edge="1">
                    <mxGeometry relative="1" as="geometry"/>
                </mxCell>
                <mxCell id="3Wksmi16IlxtHeZWQYta-7" value="(1,N)" style="edgeLabel;html=1;align=center;verticalAlign=middle;resizable=0;points=[];fontFamily=Helvetica;fontSize=11;fontColor=default;labelBackgroundColor=default;" parent="3Wksmi16IlxtHeZWQYta-6" connectable="0" vertex="1">
                    <mxGeometry x="-0.512" y="-1" relative="1" as="geometry">
                        <mxPoint x="-21" as="offset"/>
                    </mxGeometry>
                </mxCell>
                <mxCell id="jOYwwTdjakLoFln-Enrr-1" value="" style="shape=waypoint;sketch=0;fillStyle=solid;size=6;pointerEvents=1;points=[];fillColor=none;resizable=0;rotatable=0;perimeter=centerPerimeter;snapToPoint=1;strokeWidth=2;" parent="1" vertex="1">
                    <mxGeometry x="-1034" y="-947" width="20" height="20" as="geometry"/>
                </mxCell>
                <mxCell id="15" style="edgeStyle=none;shape=connector;rounded=1;html=1;labelBackgroundColor=default;strokeColor=default;fontFamily=Helvetica;fontSize=11;fontColor=default;endArrow=none;endFill=0;" parent="1" source="3" target="u5Yp9tJVJekNTXGclKFT-1" edge="1">
                    <mxGeometry relative="1" as="geometry"/>
                </mxCell>
                <mxCell id="3" value="email" style="text;html=1;strokeColor=none;fillColor=none;align=center;verticalAlign=middle;whiteSpace=wrap;rounded=0;" parent="1" vertex="1">
                    <mxGeometry x="-934" y="-838" width="60" height="30" as="geometry"/>
                </mxCell>
                <mxCell id="11" style="edgeStyle=none;html=1;endArrow=none;endFill=0;" parent="1" source="4" target="u5Yp9tJVJekNTXGclKFT-1" edge="1">
                    <mxGeometry relative="1" as="geometry"/>
                </mxCell>
                <mxCell id="4" value="nombre" style="text;html=1;strokeColor=none;fillColor=none;align=center;verticalAlign=middle;whiteSpace=wrap;rounded=0;" parent="1" vertex="1">
                    <mxGeometry x="-994" y="-765" width="60" height="30" as="geometry"/>
                </mxCell>
                <mxCell id="16" style="edgeStyle=none;shape=connector;rounded=1;html=1;labelBackgroundColor=default;strokeColor=default;fontFamily=Helvetica;fontSize=11;fontColor=default;endArrow=none;endFill=0;" parent="1" source="5" target="u5Yp9tJVJekNTXGclKFT-1" edge="1">
                    <mxGeometry relative="1" as="geometry"/>
                </mxCell>
                <mxCell id="5" value="pass" style="text;html=1;strokeColor=none;fillColor=none;align=center;verticalAlign=middle;whiteSpace=wrap;rounded=0;" parent="1" vertex="1">
                    <mxGeometry x="-1008" y="-828" width="60" height="30" as="geometry"/>
                </mxCell>
                <mxCell id="13" style="edgeStyle=none;shape=connector;rounded=1;html=1;labelBackgroundColor=default;strokeColor=default;fontFamily=Helvetica;fontSize=11;fontColor=default;endArrow=none;endFill=0;" parent="1" source="6" target="u5Yp9tJVJekNTXGclKFT-1" edge="1">
                    <mxGeometry relative="1" as="geometry"/>
                </mxCell>
                <mxCell id="6" value="fecha_nac" style="text;html=1;strokeColor=none;fillColor=none;align=center;verticalAlign=middle;whiteSpace=wrap;rounded=0;" parent="1" vertex="1">
                    <mxGeometry x="-874" y="-718" width="60" height="30" as="geometry"/>
                </mxCell>
                <mxCell id="14" style="edgeStyle=none;shape=connector;rounded=1;html=1;labelBackgroundColor=default;strokeColor=default;fontFamily=Helvetica;fontSize=11;fontColor=default;endArrow=none;endFill=0;" parent="1" source="7" target="u5Yp9tJVJekNTXGclKFT-1" edge="1">
                    <mxGeometry relative="1" as="geometry"/>
                </mxCell>
                <mxCell id="7" value="fecha_reg" style="text;html=1;strokeColor=none;fillColor=none;align=center;verticalAlign=middle;whiteSpace=wrap;rounded=0;" parent="1" vertex="1">
                    <mxGeometry x="-850" y="-748" width="60" height="30" as="geometry"/>
                </mxCell>
                <mxCell id="17" style="edgeStyle=none;shape=connector;rounded=1;html=1;labelBackgroundColor=default;strokeColor=default;fontFamily=Helvetica;fontSize=11;fontColor=default;endArrow=none;endFill=0;" parent="1" source="8" target="u5Yp9tJVJekNTXGclKFT-1" edge="1">
                    <mxGeometry relative="1" as="geometry"/>
                </mxCell>
                <mxCell id="8" value="rango_edad" style="text;html=1;strokeColor=none;fillColor=none;align=center;verticalAlign=middle;whiteSpace=wrap;rounded=0;" parent="1" vertex="1">
                    <mxGeometry x="-994" y="-858" width="60" height="30" as="geometry"/>
                </mxCell>
                <mxCell id="12" style="edgeStyle=none;shape=connector;rounded=1;html=1;labelBackgroundColor=default;strokeColor=default;fontFamily=Helvetica;fontSize=11;fontColor=default;endArrow=none;endFill=0;" parent="1" source="9" target="u5Yp9tJVJekNTXGclKFT-1" edge="1">
                    <mxGeometry relative="1" as="geometry"/>
                </mxCell>
                <mxCell id="9" value="genero" style="text;html=1;strokeColor=none;fillColor=none;align=center;verticalAlign=middle;whiteSpace=wrap;rounded=0;" parent="1" vertex="1">
                    <mxGeometry x="-982" y="-735" width="60" height="30" as="geometry"/>
                </mxCell>
                <mxCell id="18" style="edgeStyle=none;shape=connector;rounded=1;html=1;labelBackgroundColor=default;strokeColor=default;fontFamily=Helvetica;fontSize=11;fontColor=default;endArrow=none;endFill=0;" parent="1" source="10" target="u5Yp9tJVJekNTXGclKFT-1" edge="1">
                    <mxGeometry relative="1" as="geometry"/>
                </mxCell>
                <mxCell id="10" value="telefono" style="text;html=1;strokeColor=none;fillColor=none;align=center;verticalAlign=middle;whiteSpace=wrap;rounded=0;" parent="1" vertex="1">
                    <mxGeometry x="-827" y="-838" width="60" height="30" as="geometry"/>
                </mxCell>
                <mxCell id="23" style="edgeStyle=none;shape=connector;rounded=1;html=1;labelBackgroundColor=default;strokeColor=default;fontFamily=Helvetica;fontSize=11;fontColor=default;endArrow=none;endFill=0;" parent="1" source="19" target="u5Yp9tJVJekNTXGclKFT-37" edge="1">
                    <mxGeometry relative="1" as="geometry"/>
                </mxCell>
                <mxCell id="19" value="id_billetera" style="text;html=1;strokeColor=none;fillColor=none;align=center;verticalAlign=middle;whiteSpace=wrap;rounded=0;fontFamily=Helvetica;fontSize=11;fontColor=default;" parent="1" vertex="1">
                    <mxGeometry x="-1284" y="-828" width="60" height="30" as="geometry"/>
                </mxCell>
                <mxCell id="24" style="edgeStyle=none;shape=connector;rounded=1;html=1;labelBackgroundColor=default;strokeColor=default;fontFamily=Helvetica;fontSize=11;fontColor=default;endArrow=none;endFill=0;" parent="1" source="20" target="u5Yp9tJVJekNTXGclKFT-37" edge="1">
                    <mxGeometry relative="1" as="geometry"/>
                </mxCell>
                <mxCell id="20" value="cant_gemas" style="text;html=1;strokeColor=none;fillColor=none;align=center;verticalAlign=middle;whiteSpace=wrap;rounded=0;fontFamily=Helvetica;fontSize=11;fontColor=default;" parent="1" vertex="1">
                    <mxGeometry x="-1214" y="-828" width="60" height="30" as="geometry"/>
                </mxCell>
                <mxCell id="22" style="edgeStyle=none;shape=connector;rounded=1;html=1;labelBackgroundColor=default;strokeColor=default;fontFamily=Helvetica;fontSize=11;fontColor=default;endArrow=none;endFill=0;" parent="1" source="21" target="u5Yp9tJVJekNTXGclKFT-37" edge="1">
                    <mxGeometry relative="1" as="geometry"/>
                </mxCell>
                <mxCell id="21" value="cant_monedas" style="text;html=1;strokeColor=none;fillColor=none;align=center;verticalAlign=middle;whiteSpace=wrap;rounded=0;fontFamily=Helvetica;fontSize=11;fontColor=default;" parent="1" vertex="1">
                    <mxGeometry x="-1284" y="-738" width="60" height="30" as="geometry"/>
                </mxCell>
                <mxCell id="30" style="edgeStyle=none;shape=connector;rounded=1;html=1;labelBackgroundColor=default;strokeColor=default;fontFamily=Helvetica;fontSize=11;fontColor=default;endArrow=none;endFill=0;" parent="1" source="25" target="u5Yp9tJVJekNTXGclKFT-8" edge="1">
                    <mxGeometry relative="1" as="geometry"/>
                </mxCell>
                <mxCell id="25" value="nombre" style="text;html=1;strokeColor=none;fillColor=none;align=center;verticalAlign=middle;whiteSpace=wrap;rounded=0;fontFamily=Helvetica;fontSize=11;fontColor=default;" parent="1" vertex="1">
                    <mxGeometry x="-532" y="-705" width="60" height="30" as="geometry"/>
                </mxCell>
                <mxCell id="29" style="edgeStyle=none;shape=connector;rounded=1;html=1;labelBackgroundColor=default;strokeColor=default;fontFamily=Helvetica;fontSize=11;fontColor=default;endArrow=none;endFill=0;" parent="1" source="26" target="u5Yp9tJVJekNTXGclKFT-8" edge="1">
                    <mxGeometry relative="1" as="geometry"/>
                </mxCell>
                <mxCell id="26" value="genero" style="text;html=1;strokeColor=none;fillColor=none;align=center;verticalAlign=middle;whiteSpace=wrap;rounded=0;fontFamily=Helvetica;fontSize=11;fontColor=default;" parent="1" vertex="1">
                    <mxGeometry x="-704" y="-688" width="60" height="30" as="geometry"/>
                </mxCell>
                <mxCell id="28" style="edgeStyle=none;shape=connector;rounded=1;html=1;labelBackgroundColor=default;strokeColor=default;fontFamily=Helvetica;fontSize=11;fontColor=default;endArrow=none;endFill=0;" parent="1" source="27" target="u5Yp9tJVJekNTXGclKFT-8" edge="1">
                    <mxGeometry relative="1" as="geometry"/>
                </mxCell>
                <mxCell id="27" value="historia" style="text;html=1;strokeColor=none;fillColor=none;align=center;verticalAlign=middle;whiteSpace=wrap;rounded=0;fontFamily=Helvetica;fontSize=11;fontColor=default;" parent="1" vertex="1">
                    <mxGeometry x="-692" y="-650" width="60" height="30" as="geometry"/>
                </mxCell>
                <mxCell id="34" style="edgeStyle=none;shape=connector;rounded=1;html=1;labelBackgroundColor=default;strokeColor=default;fontFamily=Helvetica;fontSize=11;fontColor=default;endArrow=none;endFill=0;" parent="1" source="31" target="u5Yp9tJVJekNTXGclKFT-12" edge="1">
                    <mxGeometry relative="1" as="geometry"/>
                </mxCell>
                <mxCell id="31" value="id_idoma" style="text;html=1;strokeColor=none;fillColor=none;align=center;verticalAlign=middle;whiteSpace=wrap;rounded=0;fontFamily=Helvetica;fontSize=11;fontColor=default;" parent="1" vertex="1">
                    <mxGeometry x="-434" y="-740" width="60" height="30" as="geometry"/>
                </mxCell>
                <mxCell id="33" style="edgeStyle=none;shape=connector;rounded=1;html=1;labelBackgroundColor=default;strokeColor=default;fontFamily=Helvetica;fontSize=11;fontColor=default;endArrow=none;endFill=0;" parent="1" source="32" target="u5Yp9tJVJekNTXGclKFT-12" edge="1">
                    <mxGeometry relative="1" as="geometry"/>
                </mxCell>
                <mxCell id="32" value="nombre" style="text;html=1;strokeColor=none;fillColor=none;align=center;verticalAlign=middle;whiteSpace=wrap;rounded=0;fontFamily=Helvetica;fontSize=11;fontColor=default;" parent="1" vertex="1">
                    <mxGeometry x="-314" y="-783" width="60" height="30" as="geometry"/>
                </mxCell>
                <mxCell id="36" style="edgeStyle=none;shape=connector;rounded=1;html=1;labelBackgroundColor=default;strokeColor=default;fontFamily=Helvetica;fontSize=11;fontColor=default;endArrow=none;endFill=0;" parent="1" source="35" target="u5Yp9tJVJekNTXGclKFT-70" edge="1">
                    <mxGeometry relative="1" as="geometry"/>
                </mxCell>
                <mxCell id="35" value="id_avatar" style="text;html=1;strokeColor=none;fillColor=none;align=center;verticalAlign=middle;whiteSpace=wrap;rounded=0;fontFamily=Helvetica;fontSize=11;fontColor=default;" parent="1" vertex="1">
                    <mxGeometry x="-574" y="-540" width="60" height="30" as="geometry"/>
                </mxCell>
                <mxCell id="38" style="edgeStyle=none;shape=connector;rounded=1;html=1;labelBackgroundColor=default;strokeColor=default;fontFamily=Helvetica;fontSize=11;fontColor=default;endArrow=none;endFill=0;" parent="1" source="37" target="u5Yp9tJVJekNTXGclKFT-89" edge="1">
                    <mxGeometry relative="1" as="geometry"/>
                </mxCell>
                <mxCell id="37" value="id_voz" style="text;html=1;strokeColor=none;fillColor=none;align=center;verticalAlign=middle;whiteSpace=wrap;rounded=0;fontFamily=Helvetica;fontSize=11;fontColor=default;" parent="1" vertex="1">
                    <mxGeometry x="-454" y="-228" width="60" height="30" as="geometry"/>
                </mxCell>
                <mxCell id="48" style="edgeStyle=none;shape=connector;rounded=1;html=1;labelBackgroundColor=default;strokeColor=default;fontFamily=Helvetica;fontSize=11;fontColor=default;endArrow=none;endFill=0;" parent="1" source="39" target="u5Yp9tJVJekNTXGclKFT-89" edge="1">
                    <mxGeometry relative="1" as="geometry"/>
                </mxCell>
                <mxCell id="39" value="tipo" style="text;html=1;strokeColor=none;fillColor=none;align=center;verticalAlign=middle;whiteSpace=wrap;rounded=0;fontFamily=Helvetica;fontSize=11;fontColor=default;" parent="1" vertex="1">
                    <mxGeometry x="-364" y="-238" width="60" height="30" as="geometry"/>
                </mxCell>
                <mxCell id="47" style="edgeStyle=none;shape=connector;rounded=1;html=1;labelBackgroundColor=default;strokeColor=default;fontFamily=Helvetica;fontSize=11;fontColor=default;endArrow=none;endFill=0;" parent="1" source="40" target="u5Yp9tJVJekNTXGclKFT-89" edge="1">
                    <mxGeometry relative="1" as="geometry"/>
                </mxCell>
                <mxCell id="40" value="tono" style="text;html=1;strokeColor=none;fillColor=none;align=center;verticalAlign=middle;whiteSpace=wrap;rounded=0;fontFamily=Helvetica;fontSize=11;fontColor=default;" parent="1" vertex="1">
                    <mxGeometry x="-404" y="-198" width="60" height="30" as="geometry"/>
                </mxCell>
                <mxCell id="45" style="edgeStyle=none;shape=connector;rounded=1;html=1;labelBackgroundColor=default;strokeColor=default;fontFamily=Helvetica;fontSize=11;fontColor=default;endArrow=none;endFill=0;" parent="1" source="41" target="3Wksmi16IlxtHeZWQYta-4" edge="1">
                    <mxGeometry relative="1" as="geometry"/>
                </mxCell>
                <mxCell id="41" value="id_rasgo" style="text;html=1;strokeColor=none;fillColor=none;align=center;verticalAlign=middle;whiteSpace=wrap;rounded=0;fontFamily=Helvetica;fontSize=11;fontColor=default;" parent="1" vertex="1">
                    <mxGeometry x="-552" y="-218" width="60" height="30" as="geometry"/>
                </mxCell>
                <mxCell id="46" style="edgeStyle=none;shape=connector;rounded=1;html=1;labelBackgroundColor=default;strokeColor=default;fontFamily=Helvetica;fontSize=11;fontColor=default;endArrow=none;endFill=0;" parent="1" source="42" target="3Wksmi16IlxtHeZWQYta-4" edge="1">
                    <mxGeometry relative="1" as="geometry"/>
                </mxCell>
                <mxCell id="42" value="imagen" style="text;html=1;strokeColor=none;fillColor=none;align=center;verticalAlign=middle;whiteSpace=wrap;rounded=0;fontFamily=Helvetica;fontSize=11;fontColor=default;" parent="1" vertex="1">
                    <mxGeometry x="-504" y="-238" width="60" height="30" as="geometry"/>
                </mxCell>
                <mxCell id="44" style="edgeStyle=none;shape=connector;rounded=1;html=1;labelBackgroundColor=default;strokeColor=default;fontFamily=Helvetica;fontSize=11;fontColor=default;endArrow=none;endFill=0;" parent="1" source="43" target="3Wksmi16IlxtHeZWQYta-4" edge="1">
                    <mxGeometry relative="1" as="geometry"/>
                </mxCell>
                <mxCell id="43" value="nombre" style="text;html=1;strokeColor=none;fillColor=none;align=center;verticalAlign=middle;whiteSpace=wrap;rounded=0;fontFamily=Helvetica;fontSize=11;fontColor=default;" parent="1" vertex="1">
                    <mxGeometry x="-612" y="-238" width="60" height="30" as="geometry"/>
                </mxCell>
                <mxCell id="53" style="edgeStyle=none;shape=connector;rounded=1;html=1;labelBackgroundColor=default;strokeColor=default;fontFamily=Helvetica;fontSize=11;fontColor=default;endArrow=none;endFill=0;" parent="1" source="49" target="u5Yp9tJVJekNTXGclKFT-87" edge="1">
                    <mxGeometry relative="1" as="geometry"/>
                </mxCell>
                <mxCell id="49" value="id_interes" style="text;html=1;strokeColor=none;fillColor=none;align=center;verticalAlign=middle;whiteSpace=wrap;rounded=0;fontFamily=Helvetica;fontSize=11;fontColor=default;" parent="1" vertex="1">
                    <mxGeometry x="-694" y="-218" width="60" height="30" as="geometry"/>
                </mxCell>
                <mxCell id="52" style="edgeStyle=none;shape=connector;rounded=1;html=1;labelBackgroundColor=default;strokeColor=default;fontFamily=Helvetica;fontSize=11;fontColor=default;endArrow=none;endFill=0;" parent="1" source="50" target="u5Yp9tJVJekNTXGclKFT-87" edge="1">
                    <mxGeometry relative="1" as="geometry"/>
                </mxCell>
                <mxCell id="50" value="imagen" style="text;html=1;strokeColor=none;fillColor=none;align=center;verticalAlign=middle;whiteSpace=wrap;rounded=0;fontFamily=Helvetica;fontSize=11;fontColor=default;" parent="1" vertex="1">
                    <mxGeometry x="-634" y="-208" width="60" height="30" as="geometry"/>
                </mxCell>
                <mxCell id="54" style="edgeStyle=none;shape=connector;rounded=1;html=1;labelBackgroundColor=default;strokeColor=default;fontFamily=Helvetica;fontSize=11;fontColor=default;endArrow=none;endFill=0;" parent="1" source="51" target="u5Yp9tJVJekNTXGclKFT-87" edge="1">
                    <mxGeometry relative="1" as="geometry"/>
                </mxCell>
                <mxCell id="51" value="nombre" style="text;html=1;strokeColor=none;fillColor=none;align=center;verticalAlign=middle;whiteSpace=wrap;rounded=0;fontFamily=Helvetica;fontSize=11;fontColor=default;" parent="1" vertex="1">
                    <mxGeometry x="-734" y="-238" width="60" height="30" as="geometry"/>
                </mxCell>
                <mxCell id="62" style="edgeStyle=none;shape=connector;rounded=1;html=1;labelBackgroundColor=default;strokeColor=default;fontFamily=Helvetica;fontSize=11;fontColor=default;endArrow=none;endFill=0;" parent="1" source="56" target="u5Yp9tJVJekNTXGclKFT-86" edge="1">
                    <mxGeometry relative="1" as="geometry"/>
                </mxCell>
                <mxCell id="56" value="id_ropa" style="text;html=1;strokeColor=none;fillColor=none;align=center;verticalAlign=middle;whiteSpace=wrap;rounded=0;fontFamily=Helvetica;fontSize=11;fontColor=default;" parent="1" vertex="1">
                    <mxGeometry x="-874" y="-320" width="60" height="30" as="geometry"/>
                </mxCell>
                <mxCell id="64" style="edgeStyle=none;shape=connector;rounded=1;html=1;labelBackgroundColor=default;strokeColor=default;fontFamily=Helvetica;fontSize=11;fontColor=default;endArrow=none;endFill=0;" parent="1" source="57" target="u5Yp9tJVJekNTXGclKFT-86" edge="1">
                    <mxGeometry relative="1" as="geometry"/>
                </mxCell>
                <mxCell id="57" value="descripcion" style="text;html=1;strokeColor=none;fillColor=none;align=center;verticalAlign=middle;whiteSpace=wrap;rounded=0;fontFamily=Helvetica;fontSize=11;fontColor=default;" parent="1" vertex="1">
                    <mxGeometry x="-842" y="-198" width="60" height="30" as="geometry"/>
                </mxCell>
                <mxCell id="61" style="edgeStyle=none;shape=connector;rounded=1;html=1;labelBackgroundColor=default;strokeColor=default;fontFamily=Helvetica;fontSize=11;fontColor=default;endArrow=none;endFill=0;" parent="1" source="58" target="u5Yp9tJVJekNTXGclKFT-86" edge="1">
                    <mxGeometry relative="1" as="geometry"/>
                </mxCell>
                <mxCell id="58" value="tipo" style="text;html=1;strokeColor=none;fillColor=none;align=center;verticalAlign=middle;whiteSpace=wrap;rounded=0;fontFamily=Helvetica;fontSize=11;fontColor=default;" parent="1" vertex="1">
                    <mxGeometry x="-884" y="-280" width="60" height="30" as="geometry"/>
                </mxCell>
                <mxCell id="63" style="edgeStyle=none;shape=connector;rounded=1;html=1;labelBackgroundColor=default;strokeColor=default;fontFamily=Helvetica;fontSize=11;fontColor=default;endArrow=none;endFill=0;" parent="1" source="59" target="u5Yp9tJVJekNTXGclKFT-86" edge="1">
                    <mxGeometry relative="1" as="geometry"/>
                </mxCell>
                <mxCell id="59" value="precio_gemas" style="text;html=1;strokeColor=none;fillColor=none;align=center;verticalAlign=middle;whiteSpace=wrap;rounded=0;fontFamily=Helvetica;fontSize=11;fontColor=default;" parent="1" vertex="1">
                    <mxGeometry x="-774" y="-218" width="60" height="30" as="geometry"/>
                </mxCell>
                <mxCell id="65" style="edgeStyle=none;shape=connector;rounded=1;html=1;labelBackgroundColor=default;strokeColor=default;fontFamily=Helvetica;fontSize=11;fontColor=default;endArrow=none;endFill=0;" parent="1" source="60" target="u5Yp9tJVJekNTXGclKFT-86" edge="1">
                    <mxGeometry relative="1" as="geometry"/>
                </mxCell>
                <mxCell id="60" value="precio_monedsa" style="text;html=1;strokeColor=none;fillColor=none;align=center;verticalAlign=middle;whiteSpace=wrap;rounded=0;fontFamily=Helvetica;fontSize=11;fontColor=default;" parent="1" vertex="1">
                    <mxGeometry x="-884" y="-238" width="60" height="30" as="geometry"/>
                </mxCell>
                <mxCell id="72" style="edgeStyle=none;shape=connector;rounded=1;html=1;labelBackgroundColor=default;strokeColor=default;fontFamily=Helvetica;fontSize=11;fontColor=default;endArrow=none;endFill=0;" parent="1" source="66" target="u5Yp9tJVJekNTXGclKFT-43" edge="1">
                    <mxGeometry relative="1" as="geometry"/>
                </mxCell>
                <mxCell id="66" value="id_paquete" style="text;html=1;strokeColor=none;fillColor=none;align=center;verticalAlign=middle;whiteSpace=wrap;rounded=0;fontFamily=Helvetica;fontSize=11;fontColor=default;" parent="1" vertex="1">
                    <mxGeometry x="-1314" y="-500" width="60" height="30" as="geometry"/>
                </mxCell>
                <mxCell id="74" style="edgeStyle=none;shape=connector;rounded=1;html=1;labelBackgroundColor=default;strokeColor=default;fontFamily=Helvetica;fontSize=11;fontColor=default;endArrow=none;endFill=0;" parent="1" source="67" target="u5Yp9tJVJekNTXGclKFT-43" edge="1">
                    <mxGeometry relative="1" as="geometry"/>
                </mxCell>
                <mxCell id="67" value="tipo" style="text;html=1;strokeColor=none;fillColor=none;align=center;verticalAlign=middle;whiteSpace=wrap;rounded=0;fontFamily=Helvetica;fontSize=11;fontColor=default;" parent="1" vertex="1">
                    <mxGeometry x="-1204" y="-478" width="60" height="30" as="geometry"/>
                </mxCell>
                <mxCell id="75" style="edgeStyle=none;shape=connector;rounded=1;html=1;labelBackgroundColor=default;strokeColor=default;fontFamily=Helvetica;fontSize=11;fontColor=default;endArrow=none;endFill=0;" parent="1" source="68" target="u5Yp9tJVJekNTXGclKFT-43" edge="1">
                    <mxGeometry relative="1" as="geometry"/>
                </mxCell>
                <mxCell id="68" value="cantidad" style="text;html=1;strokeColor=none;fillColor=none;align=center;verticalAlign=middle;whiteSpace=wrap;rounded=0;fontFamily=Helvetica;fontSize=11;fontColor=default;" parent="1" vertex="1">
                    <mxGeometry x="-1154" y="-490" width="60" height="30" as="geometry"/>
                </mxCell>
                <mxCell id="71" style="edgeStyle=none;shape=connector;rounded=1;html=1;labelBackgroundColor=default;strokeColor=default;fontFamily=Helvetica;fontSize=11;fontColor=default;endArrow=none;endFill=0;" parent="1" source="69" target="u5Yp9tJVJekNTXGclKFT-43" edge="1">
                    <mxGeometry relative="1" as="geometry"/>
                </mxCell>
                <mxCell id="69" value="importe" style="text;html=1;strokeColor=none;fillColor=none;align=center;verticalAlign=middle;whiteSpace=wrap;rounded=0;fontFamily=Helvetica;fontSize=11;fontColor=default;" parent="1" vertex="1">
                    <mxGeometry x="-1314" y="-540" width="60" height="30" as="geometry"/>
                </mxCell>
                <mxCell id="73" style="edgeStyle=none;shape=connector;rounded=1;html=1;labelBackgroundColor=default;strokeColor=default;fontFamily=Helvetica;fontSize=11;fontColor=default;endArrow=none;endFill=0;" parent="1" source="70" target="u5Yp9tJVJekNTXGclKFT-43" edge="1">
                    <mxGeometry relative="1" as="geometry"/>
                </mxCell>
                <mxCell id="70" value="descuento" style="text;html=1;strokeColor=none;fillColor=none;align=center;verticalAlign=middle;whiteSpace=wrap;rounded=0;fontFamily=Helvetica;fontSize=11;fontColor=default;" parent="1" vertex="1">
                    <mxGeometry x="-1274" y="-470" width="60" height="30" as="geometry"/>
                </mxCell>
                <mxCell id="81" style="edgeStyle=none;shape=connector;rounded=1;html=1;labelBackgroundColor=default;strokeColor=default;fontFamily=Helvetica;fontSize=11;fontColor=default;endArrow=none;endFill=0;" parent="1" source="76" target="u5Yp9tJVJekNTXGclKFT-50" edge="1">
                    <mxGeometry relative="1" as="geometry"/>
                </mxCell>
                <mxCell id="76" value="precio" style="text;html=1;strokeColor=none;fillColor=none;align=center;verticalAlign=middle;whiteSpace=wrap;rounded=0;fontFamily=Helvetica;fontSize=11;fontColor=default;" parent="1" vertex="1">
                    <mxGeometry x="-1254" y="-1000" width="60" height="30" as="geometry"/>
                </mxCell>
                <mxCell id="80" style="edgeStyle=none;shape=connector;rounded=1;html=1;labelBackgroundColor=default;strokeColor=default;fontFamily=Helvetica;fontSize=11;fontColor=default;endArrow=none;endFill=0;" parent="1" source="77" target="u5Yp9tJVJekNTXGclKFT-50" edge="1">
                    <mxGeometry relative="1" as="geometry"/>
                </mxCell>
                <mxCell id="77" value="tipo" style="text;html=1;strokeColor=none;fillColor=none;align=center;verticalAlign=middle;whiteSpace=wrap;rounded=0;fontFamily=Helvetica;fontSize=11;fontColor=default;" parent="1" vertex="1">
                    <mxGeometry x="-1304" y="-990" width="60" height="30" as="geometry"/>
                </mxCell>
                <mxCell id="79" style="edgeStyle=none;shape=connector;rounded=1;html=1;labelBackgroundColor=default;strokeColor=default;fontFamily=Helvetica;fontSize=11;fontColor=default;endArrow=none;endFill=0;" parent="1" source="78" target="u5Yp9tJVJekNTXGclKFT-50" edge="1">
                    <mxGeometry relative="1" as="geometry"/>
                </mxCell>
                <mxCell id="78" value="id_suscripcion" style="text;html=1;strokeColor=none;fillColor=none;align=center;verticalAlign=middle;whiteSpace=wrap;rounded=0;fontFamily=Helvetica;fontSize=11;fontColor=default;" parent="1" vertex="1">
                    <mxGeometry x="-1364" y="-957" width="90" height="30" as="geometry"/>
                </mxCell>
                <mxCell id="86" style="edgeStyle=none;shape=connector;rounded=1;html=1;labelBackgroundColor=default;strokeColor=default;fontFamily=Helvetica;fontSize=11;fontColor=default;endArrow=none;endFill=0;" parent="1" source="82" target="u5Yp9tJVJekNTXGclKFT-65" edge="1">
                    <mxGeometry relative="1" as="geometry"/>
                </mxCell>
                <mxCell id="82" value="id_aplicacion" style="text;html=1;strokeColor=none;fillColor=none;align=center;verticalAlign=middle;whiteSpace=wrap;rounded=0;fontFamily=Helvetica;fontSize=11;fontColor=default;" parent="1" vertex="1">
                    <mxGeometry x="-984" y="-460" width="60" height="30" as="geometry"/>
                </mxCell>
                <mxCell id="87" style="edgeStyle=none;shape=connector;rounded=1;html=1;labelBackgroundColor=default;strokeColor=default;fontFamily=Helvetica;fontSize=11;fontColor=default;endArrow=none;endFill=0;" parent="1" source="83" target="u5Yp9tJVJekNTXGclKFT-65" edge="1">
                    <mxGeometry relative="1" as="geometry"/>
                </mxCell>
                <mxCell id="83" value="nombre" style="text;html=1;strokeColor=none;fillColor=none;align=center;verticalAlign=middle;whiteSpace=wrap;rounded=0;fontFamily=Helvetica;fontSize=11;fontColor=default;" parent="1" vertex="1">
                    <mxGeometry x="-902" y="-458" width="60" height="30" as="geometry"/>
                </mxCell>
                <mxCell id="85" style="edgeStyle=none;shape=connector;rounded=1;html=1;labelBackgroundColor=default;strokeColor=default;fontFamily=Helvetica;fontSize=11;fontColor=default;endArrow=none;endFill=0;" parent="1" source="84" target="u5Yp9tJVJekNTXGclKFT-65" edge="1">
                    <mxGeometry relative="1" as="geometry"/>
                </mxCell>
                <mxCell id="84" value="tipo" style="text;html=1;strokeColor=none;fillColor=none;align=center;verticalAlign=middle;whiteSpace=wrap;rounded=0;fontFamily=Helvetica;fontSize=11;fontColor=default;" parent="1" vertex="1">
                    <mxGeometry x="-1002" y="-500" width="60" height="30" as="geometry"/>
                </mxCell>
                <mxCell id="92" style="edgeStyle=none;shape=connector;rounded=1;html=1;labelBackgroundColor=default;strokeColor=default;fontFamily=Helvetica;fontSize=11;fontColor=default;endArrow=none;endFill=0;" parent="1" source="88" target="u5Yp9tJVJekNTXGclKFT-42" edge="1">
                    <mxGeometry relative="1" as="geometry"/>
                </mxCell>
                <mxCell id="88" value="id_compra" style="text;html=1;strokeColor=none;fillColor=none;align=center;verticalAlign=middle;whiteSpace=wrap;rounded=0;fontFamily=Helvetica;fontSize=11;fontColor=default;" parent="1" vertex="1">
                    <mxGeometry x="-1304" y="-640" width="60" height="30" as="geometry"/>
                </mxCell>
                <mxCell id="91" style="edgeStyle=none;shape=connector;rounded=1;html=1;labelBackgroundColor=default;strokeColor=default;fontFamily=Helvetica;fontSize=11;fontColor=default;endArrow=none;endFill=0;" parent="1" source="89" target="u5Yp9tJVJekNTXGclKFT-42" edge="1">
                    <mxGeometry relative="1" as="geometry"/>
                </mxCell>
                <mxCell id="89" value="hora" style="text;html=1;strokeColor=none;fillColor=none;align=center;verticalAlign=middle;whiteSpace=wrap;rounded=0;fontFamily=Helvetica;fontSize=11;fontColor=default;" parent="1" vertex="1">
                    <mxGeometry x="-1154" y="-640" width="60" height="30" as="geometry"/>
                </mxCell>
                <mxCell id="94" style="edgeStyle=none;html=1;endArrow=none;endFill=0;" parent="1" source="93" target="u5Yp9tJVJekNTXGclKFT-42" edge="1">
                    <mxGeometry relative="1" as="geometry"/>
                </mxCell>
                <mxCell id="93" value="fecha" style="text;html=1;strokeColor=none;fillColor=none;align=center;verticalAlign=middle;whiteSpace=wrap;rounded=0;fontFamily=Helvetica;fontSize=11;fontColor=default;" parent="1" vertex="1">
                    <mxGeometry x="-1154" y="-590" width="60" height="30" as="geometry"/>
                </mxCell>
                <mxCell id="96" style="edgeStyle=none;html=1;endArrow=none;endFill=0;" parent="1" source="95" target="u5Yp9tJVJekNTXGclKFT-42" edge="1">
                    <mxGeometry relative="1" as="geometry"/>
                </mxCell>
                <mxCell id="95" value="metodo_pago" style="text;html=1;strokeColor=none;fillColor=none;align=center;verticalAlign=middle;whiteSpace=wrap;rounded=0;" parent="1" vertex="1">
                    <mxGeometry x="-1350" y="-590" width="86" height="30" as="geometry"/>
                </mxCell>
                <mxCell id="99" style="edgeStyle=none;html=1;endArrow=none;endFill=0;" parent="1" source="97" target="u5Yp9tJVJekNTXGclKFT-8" edge="1">
                    <mxGeometry relative="1" as="geometry"/>
                </mxCell>
                <mxCell id="97" value="rol" style="text;html=1;strokeColor=none;fillColor=none;align=center;verticalAlign=middle;whiteSpace=wrap;rounded=0;" parent="1" vertex="1">
                    <mxGeometry x="-580" y="-658" width="60" height="30" as="geometry"/>
                </mxCell>
                <mxCell id="100" style="edgeStyle=none;html=1;endArrow=none;endFill=0;" parent="1" source="98" target="u5Yp9tJVJekNTXGclKFT-8" edge="1">
                    <mxGeometry relative="1" as="geometry"/>
                </mxCell>
                <mxCell id="98" value="subrol" style="text;html=1;strokeColor=none;fillColor=none;align=center;verticalAlign=middle;whiteSpace=wrap;rounded=0;" parent="1" vertex="1">
                    <mxGeometry x="-520" y="-670" width="60" height="30" as="geometry"/>
                </mxCell>
                <mxCell id="101" value="tiene" style="rhombus;whiteSpace=wrap;html=1;" parent="1" vertex="1">
                    <mxGeometry x="-704" y="-815" width="80" height="80" as="geometry"/>
                </mxCell>
                <mxCell id="102" value="" style="endArrow=none;html=1;edgeStyle=orthogonalEdgeStyle;endFill=0;startArrow=none;startFill=0;rounded=0;" parent="1" source="u5Yp9tJVJekNTXGclKFT-8" target="101" edge="1">
                    <mxGeometry width="50" height="50" relative="1" as="geometry">
                        <mxPoint x="-730" y="-590" as="sourcePoint"/>
                        <mxPoint x="-680" y="-640" as="targetPoint"/>
                        <Array as="points">
                            <mxPoint x="-664" y="-690"/>
                        </Array>
                    </mxGeometry>
                </mxCell>
                <mxCell id="105" value="(1,1)" style="edgeLabel;html=1;align=center;verticalAlign=middle;resizable=0;points=[];" parent="102" vertex="1" connectable="0">
                    <mxGeometry x="-0.368" y="-1" relative="1" as="geometry">
                        <mxPoint x="12" y="-12" as="offset"/>
                    </mxGeometry>
                </mxCell>
            </root>
        </mxGraphModel>
    </diagram>
</mxfile>